<?xml version="1.0" encoding="UTF-8"?> <svg xmlns="http://www.w3.org/2000/svg" xmlns:xlink="http://www.w3.org/1999/xlink" version="1.1" id="Capa_1" x="0px" y="0px" viewBox="0 0 400 247.9" style="enable-background:new 0 0 400 247.9;" xml:space="preserve"> <style type="text/css"> .st0{fill:#24195D;} .st1{fill:#312783;} .st2{fill:#2B2171;} </style> <g> <path class="st0" d="M355.4,200.2c-2.7,2.6-6,3.9-9.9,3.9c-3.9,0-7.2-1.3-9.9-3.9c-2.7-2.6-4-5.9-4-9.7c0-3.9,1.3-7.1,4-9.7 c2.7-2.6,6-3.9,9.9-3.9c3.9,0,7.2,1.3,9.9,3.9c2.7,2.6,4,5.9,4,9.7S358.1,197.6,355.4,200.2 M352.1,183.7c-1.8-1.9-4-2.8-6.6-2.8 c-2.6,0-4.8,0.9-6.6,2.8c-1.8,1.9-2.7,4.1-2.7,6.8s0.9,4.9,2.7,6.8c1.8,1.9,4,2.8,6.6,2.8c2.6,0,4.8-0.9,6.6-2.8 c1.8-1.9,2.7-4.1,2.7-6.8C354.8,187.8,353.9,185.6,352.1,183.7z M322.6,177.5h4.5v26.4h-4.5V177.5z M307.9,199.8 c1.5,0,2.9-0.3,4-0.8c1.1-0.5,2.3-1.3,3.5-2.5l2.9,2.9c-2.8,3.1-6.2,4.6-10.2,4.6c-4,0-7.3-1.3-9.9-3.9s-3.9-5.8-3.9-9.7 s1.3-7.2,4-9.8c2.7-2.6,6.1-3.9,10.1-3.9s7.5,1.5,10.2,4.5l-2.8,3.1c-1.3-1.2-2.5-2-3.6-2.5s-2.4-0.7-3.9-0.7 c-2.7,0-4.9,0.9-6.7,2.6c-1.8,1.7-2.7,3.9-2.7,6.6s0.9,4.9,2.7,6.7C303.3,198.9,305.4,199.8,307.9,199.8z M280.8,190.9 c2.5,0,4.2-0.4,5.1-1.2c0.9-0.8,1.4-2,1.4-3.8c0-1.7-0.5-2.9-1.4-3.5c-0.9-0.6-2.6-1-5-1h-5.7v9.4H280.8z M291.9,186 c0,4.4-1.9,7.1-5.7,8.2l6.9,9.6h-5.7l-6.3-8.9h-5.9v8.9h-4.5v-26.4h9.8c4,0,6.9,0.7,8.6,2C291,180.9,291.9,183,291.9,186z M265.7,177.5v4.2h-14.1v7h12.6v4h-12.6v7.1h14.5v4.2h-19v-26.4L265.7,177.5L265.7,177.5z M217,203.9h-4.4v-26.4h6.9l8,16.6l8-16.6 h6.9v26.4h-4.4v-20.6l-9.2,18.3h-2.5l-9.2-18.3L217,203.9L217,203.9z M203.9,200.2c-2.7,2.6-6,3.9-9.9,3.9s-7.2-1.3-9.9-3.9 c-2.7-2.6-4-5.9-4-9.7c0-3.9,1.3-7.1,4-9.7c2.7-2.6,6-3.9,9.9-3.9s7.2,1.3,9.9,3.9c2.7,2.6,4,5.9,4,9.7S206.6,197.6,203.9,200.2z M200.7,183.7c-1.8-1.9-4-2.8-6.6-2.8c-2.6,0-4.8,0.9-6.6,2.8c-1.8,1.9-2.7,4.1-2.7,6.8s0.9,4.9,2.7,6.8s4,2.8,6.6,2.8 c2.6,0,4.8-0.9,6.6-2.8c1.8-1.9,2.7-4.1,2.7-6.8C203.4,187.8,202.5,185.6,200.7,183.7z M167.7,199.8c1.5,0,2.9-0.3,4-0.8 c1.1-0.5,2.3-1.3,3.5-2.5l2.9,2.9c-2.8,3.1-6.2,4.6-10.2,4.6s-7.3-1.3-9.9-3.9s-3.9-5.8-3.9-9.7s1.3-7.2,4-9.8 c2.7-2.6,6.1-3.9,10.1-3.9s7.5,1.5,10.2,4.5l-2.8,3.1c-1.3-1.2-2.4-2-3.6-2.5c-1.1-0.5-2.4-0.7-3.9-0.7c-2.7,0-4.9,0.9-6.7,2.6 c-1.8,1.7-2.7,3.9-2.7,6.6s0.9,4.9,2.7,6.7C163.1,198.9,165.2,199.8,167.7,199.8z"></path> <g> <polygon class="st1" points="99.9,95.7 14.8,124 128.2,124 "></polygon> <polygon class="st2" points="71.5,67.3 14.8,124 99.9,95.7 "></polygon> <polygon class="st1" points="213.2,95.7 128.2,124 241.6,124 "></polygon> <polygon class="st1" points="71.5,67.3 14.8,10.6 14.8,124 "></polygon> <polygon class="st0" points="128.2,10.6 14.8,10.6 71.5,67.3 "></polygon> <polygon class="st1" points="184.9,67.3 128.2,10.6 128.2,124 "></polygon> <polygon class="st0" points="241.6,10.6 128.2,10.6 184.9,67.3 "></polygon> <polygon class="st1" points="14.8,237.4 71.5,180.7 14.8,124 "></polygon> <path class="st0" d="M359,144v4.2h-14.1v7h12.6v4h-12.6v7.1h14.5v4.2h-19V144H359z M330.7,157.2c0-6-3.5-9.1-10.4-9.1h-4.5v18.1 h4.9c3.2,0,5.6-0.8,7.3-2.3C329.9,162.4,330.7,160.2,330.7,157.2z M320.5,144c4.7,0,8.4,1.1,10.9,3.4s3.8,5.5,3.8,9.6 c0,4.1-1.2,7.4-3.7,9.7s-6.2,3.6-11.3,3.6h-8.8V144L320.5,144L320.5,144z M290.8,160.3l-4.8-10.9l-4.8,10.9H290.8z M279.4,164.4 l-2.6,6H272l11.6-26.4h4.8l11.6,26.4h-4.8l-2.6-6H279.4z M258.7,157.5c2.5,0,4.2-0.4,5.1-1.2c0.9-0.8,1.4-2,1.4-3.8 c0-1.7-0.5-2.9-1.4-3.6s-2.6-1-5-1h-5.7v9.4H258.7z M269.8,152.6c0,4.4-1.9,7.1-5.7,8.2l6.9,9.6h-5.7l-6.3-8.9h-5.9v8.9h-4.5V144 h9.8c4,0,6.9,0.7,8.6,2C268.9,147.4,269.8,149.6,269.8,152.6z M236.4,160.3l-4.8-10.9l-4.8,10.9H236.4z M225,164.4l-2.6,6h-4.8 l11.6-26.4h4.8l11.6,26.4h-4.8l-2.6-6H225z M189.1,170.4h-4.4V144h6.9l8,16.6l8-16.6h6.9v26.4H210v-20.6l-9.2,18.3h-2.5l-9.2-18.3 L189.1,170.4L189.1,170.4z M169.5,141.8h-3.9l4-5.5l4.4,1.9L169.5,141.8z M172.3,160.3l-4.8-10.9l-4.8,10.9H172.3z M160.9,164.4 l-2.6,6h-4.8l11.6-26.4h4.8l11.6,26.4h-4.8l-2.6-6H160.9z M141.9,166.4c1.5,0,2.9-0.3,4-0.8c1.1-0.5,2.3-1.3,3.5-2.5l2.9,2.9 c-2.8,3.1-6.2,4.6-10.2,4.6s-7.3-1.3-9.9-3.9c-2.6-2.6-3.9-5.8-3.9-9.7s1.3-7.2,4-9.8c2.7-2.6,6.1-3.9,10.1-3.9s7.5,1.5,10.2,4.5 l-2.8,3.1c-1.3-1.2-2.4-2.1-3.6-2.5c-1.1-0.5-2.4-0.7-3.9-0.7c-2.7,0-4.9,0.9-6.7,2.6c-1.8,1.7-2.7,3.9-2.7,6.6 c0,2.7,0.9,4.9,2.7,6.7C137.3,165.5,139.5,166.4,141.9,166.4z"></path> <path class="st0" d="M355.4,233.6c-2.7,2.6-6,3.9-9.9,3.9c-3.9,0-7.2-1.3-9.9-3.9c-2.7-2.6-4-5.9-4-9.7c0-3.9,1.3-7.1,4-9.7 c2.7-2.6,6-3.9,9.9-3.9c3.9,0,7.2,1.3,9.9,3.9c2.7,2.6,4,5.9,4,9.7S358.1,231,355.4,233.6 M352.1,217.1c-1.8-1.9-4-2.8-6.6-2.8 c-2.6,0-4.8,0.9-6.6,2.8c-1.8,1.9-2.7,4.1-2.7,6.8s0.9,4.9,2.7,6.8c1.8,1.9,4,2.8,6.6,2.8c2.6,0,4.8-0.9,6.6-2.8 c1.8-1.9,2.7-4.1,2.7-6.8C354.8,221.3,353.9,219,352.1,217.1z M323.7,215v22.3h-4.5V215h-8v-4.1h20.5v4.1H323.7z M298.9,214.4 c-1.3,0-2.4,0.3-3.2,0.8c-0.8,0.5-1.2,1.3-1.2,2.4s0.4,1.9,1.2,2.5c0.8,0.6,2.6,1.2,5.3,1.8c2.7,0.6,4.7,1.6,6.1,2.8 c1.4,1.2,2.1,2.9,2.1,5.2c0,2.3-0.9,4.2-2.6,5.6c-1.7,1.4-4,2.1-6.8,2.1c-4.1,0-7.8-1.4-11-4.3l2.8-3.4c2.7,2.3,5.4,3.5,8.3,3.5 c1.4,0,2.6-0.3,3.4-0.9c0.8-0.6,1.3-1.4,1.3-2.5c0-1-0.4-1.8-1.2-2.4s-2.2-1.1-4.1-1.5c-1.9-0.5-3.4-0.9-4.4-1.3 c-1-0.4-1.9-0.9-2.7-1.5c-1.5-1.2-2.3-3-2.3-5.4s0.9-4.3,2.7-5.6s4-2,6.6-2c1.7,0,3.4,0.3,5,0.8s3.1,1.3,4.3,2.3l-2.4,3.4 c-0.8-0.7-1.8-1.3-3.2-1.7C301.5,214.6,300.2,214.4,298.9,214.4z M279.1,227.2l-4.8-10.9l-4.8,10.9H279.1z M267.7,231.3l-2.6,6 h-4.8l11.6-26.4h4.8l11.6,26.4h-4.8l-2.6-6H267.7z M251.7,225.5c2.5,0,4.1-0.5,5-1.4c0.9-0.9,1.3-2.3,1.3-4.1s-0.6-3.1-1.7-3.9 c-1.1-0.8-2.9-1.1-5.3-1.1h-4.5v10.6H251.7z M251.1,210.9c4,0,6.9,0.8,8.8,2.3s2.8,3.9,2.8,7.1s-0.9,5.5-2.8,7 c-1.9,1.5-4.8,2.2-8.6,2.2h-4.7v7.7h-4.4v-26.4L251.1,210.9L251.1,210.9z M229.6,210.9v4.2h-14.1v7h12.6v4h-12.6v7.1H230v4.2h-19 v-26.4H229.6z M201.8,224.1c0-6-3.5-9.1-10.4-9.1H187v18.1h4.9c3.2,0,5.6-0.8,7.3-2.3S201.8,227,201.8,224.1z M191.6,210.9 c4.7,0,8.4,1.1,10.9,3.5c2.5,2.3,3.8,5.5,3.8,9.6c0,4.1-1.2,7.4-3.7,9.7c-2.5,2.4-6.2,3.6-11.3,3.6h-8.8v-26.4L191.6,210.9 L191.6,210.9z"></path> <polygon class="st0" points="14.8,124 71.5,180.7 128.2,124 "></polygon> <polygon class="st2" points="184.9,67.3 128.2,124 213.2,95.7 "></polygon> </g> </g> </svg> 